# Blender v2.93.3 OBJ File: 'cadeira.blend'
# www.blender.org
mtllib cadeira.mtl
o Cubo.002
v 0.090302 2.017076 0.058823
v 0.058417 2.017076 0.058823
v 0.058417 2.017076 0.998289
v 0.090302 2.017076 0.998289
v 0.058417 1.266216 0.998289
v 0.090302 1.266216 0.998289
v 0.058417 1.266216 0.058823
v 0.090302 1.266216 0.058823
v 0.184632 0.017074 0.965879
v 0.171363 0.017074 0.981517
v 0.088406 0.017074 0.981517
v 0.073033 0.017074 0.963399
v 0.073033 0.017074 0.867431
v 0.087830 0.017074 0.849992
v 0.172121 0.017074 0.849992
v 0.184632 0.017074 0.864738
v 0.073033 1.970861 0.963399
v 0.088406 1.970861 0.981517
v 0.171363 1.970861 0.981517
v 0.184632 1.970861 0.965879
v 0.184632 1.970861 0.864738
v 0.172121 1.970861 0.849992
v 0.087830 1.970861 0.849992
v 0.073033 1.970861 0.867431
v 0.184632 0.019149 0.198045
v 0.171363 0.019149 0.213686
v 0.088406 0.019149 0.213683
v 0.073033 0.019149 0.195568
v 0.073033 0.019149 0.099597
v 0.087830 0.019149 0.082158
v 0.172121 0.019149 0.082158
v 0.184632 0.019149 0.096904
v 0.073033 1.964107 0.195568
v 0.088406 1.964107 0.213684
v 0.171363 1.964107 0.213686
v 0.184632 1.964107 0.198046
v 0.184632 1.964107 0.096904
v 0.172121 1.964107 0.082159
v 0.087830 1.964107 0.082159
v 0.073033 1.964107 0.099597
v -0.609332 0.061540 0.198045
v -0.622601 0.061540 0.213684
v -0.705557 0.061540 0.213684
v -0.720931 0.061540 0.195568
v -0.720931 0.061540 0.099597
v -0.706134 0.061540 0.082158
v -0.621843 0.061540 0.082158
v -0.609332 0.061540 0.096904
v -0.720931 0.962569 0.195568
v -0.705557 0.962569 0.213684
v -0.622601 0.962569 0.213684
v -0.609332 0.962569 0.198046
v -0.609332 0.962569 0.096904
v -0.621843 0.962569 0.082159
v -0.706134 0.962569 0.082159
v -0.720931 0.962569 0.099597
v -0.609332 0.061540 0.971237
v -0.622601 0.061540 0.986875
v -0.705557 0.061540 0.986875
v -0.720931 0.061540 0.968759
v -0.720931 0.061540 0.872789
v -0.706134 0.061540 0.855350
v -0.621843 0.061540 0.855350
v -0.609332 0.061540 0.870096
v -0.720931 0.962569 0.968759
v -0.705557 0.962569 0.986875
v -0.622601 0.962569 0.986875
v -0.609332 0.962569 0.971237
v -0.609332 0.962569 0.870096
v -0.621843 0.962569 0.855350
v -0.706134 0.962569 0.855350
v -0.720931 0.962569 0.872789
v 0.141199 0.953427 0.028557
v 0.141199 0.983461 0.028557
v 0.141199 0.983460 1.028557
v 0.141199 0.953426 1.028557
v -0.815368 0.983460 1.028557
v -0.815368 0.953426 1.028557
v -0.815368 0.983461 0.028557
v -0.815368 0.953427 0.028557
vt 0.375000 0.000000
vt 0.625000 0.000000
vt 0.625000 0.250000
vt 0.375000 0.250000
vt 0.625000 0.500000
vt 0.375000 0.500000
vt 0.625000 0.750000
vt 0.375000 0.750000
vt 0.625000 1.000000
vt 0.375000 1.000000
vt 0.125000 0.500000
vt 0.125000 0.750000
vt 0.875000 0.500000
vt 0.875000 0.750000
vt 0.000000 0.000000
vt 0.000000 0.000000
vt 0.000000 0.000000
vt 0.000000 0.000000
vt 0.000000 0.000000
vt 0.000000 0.000000
vt 0.000000 0.000000
vt 0.000000 0.000000
vt 0.000000 0.000000
vt 0.000000 0.000000
vt 0.000000 0.000000
vt 0.000000 0.000000
vt 0.000000 0.000000
vt 0.000000 0.000000
vt 0.000000 0.000000
vt 0.000000 0.000000
vt 0.000000 0.000000
vt 0.000000 0.000000
vt 0.000000 0.000000
vt 0.000000 0.000000
vt 0.000000 0.000000
vt 0.000000 0.000000
vt 0.000000 0.000000
vt 0.000000 0.000000
vt 0.000000 0.000000
vt 0.000000 0.000000
vt 0.000000 0.000000
vt 0.000000 0.000000
vt 0.000000 0.000000
vt 0.000000 0.000000
vt 0.000000 0.000000
vt 0.000000 0.000000
vt 0.000000 0.000000
vt 0.000000 0.000000
vt 0.000000 0.000000
vt 0.000000 0.000000
vt 0.000000 0.000000
vt 0.000000 0.000000
vt 0.000000 0.000000
vt 0.000000 0.000000
vt 0.000000 0.000000
vt 0.000000 0.000000
vt 0.000000 0.000000
vt 0.000000 0.000000
vt 0.000000 0.000000
vt 0.000000 0.000000
vt 0.000000 0.000000
vt 0.000000 0.000000
vt 0.000000 0.000000
vt 0.000000 0.000000
vt 0.000000 0.000000
vt 0.000000 0.000000
vt 0.000000 0.000000
vt 0.000000 0.000000
vt 0.000000 0.000000
vt 0.000000 0.000000
vt 0.000000 0.000000
vt 0.000000 0.000000
vt 0.000000 0.000000
vt 0.000000 0.000000
vt 0.000000 0.000000
vt 0.000000 0.000000
vt 0.000000 0.000000
vt 0.000000 0.000000
vt 0.375000 0.000000
vt 0.625000 0.000000
vt 0.625000 0.250000
vt 0.375000 0.250000
vt 0.625000 0.500000
vt 0.375000 0.500000
vt 0.625000 0.750000
vt 0.375000 0.750000
vt 0.625000 1.000000
vt 0.375000 1.000000
vt 0.125000 0.500000
vt 0.125000 0.750000
vt 0.875000 0.500000
vt 0.875000 0.750000
vn 0.0000 1.0000 0.0000
vn 0.0000 -0.0000 1.0000
vn 0.0000 -1.0000 -0.0000
vn 0.0000 0.0000 -1.0000
vn 1.0000 0.0000 0.0000
vn -1.0000 -0.0000 0.0000
vn -0.7625 0.0000 -0.6470
vn -0.7625 -0.0000 0.6470
vn 0.7625 -0.0000 0.6470
vn 0.7625 0.0000 -0.6470
vn 0.7626 -0.0000 0.6469
usemtl Material.001
s 1
f 1/1/1 2/2/1 3/3/1 4/4/1
f 4/4/2 3/3/2 5/5/2 6/6/2
f 6/6/3 5/5/3 7/7/3 8/8/3
f 8/8/4 7/7/4 2/9/4 1/10/4
f 4/11/5 6/6/5 8/8/5 1/12/5
f 5/5/6 3/13/6 2/14/6 7/7/6
f 9/15/3 10/16/3 11/17/3 12/18/3 13/19/3 14/20/3 15/21/3 16/22/3
f 17/23/1 18/24/1 19/25/1 20/26/1 21/27/1 22/28/1 23/29/1 24/30/1
f 23/29/7 14/20/7 13/19/7 24/30/7
f 14/20/4 23/29/4 22/28/4 15/21/4
f 17/23/8 12/18/8 11/17/8 18/24/8
f 12/18/6 17/23/6 24/30/6 13/19/6
f 19/25/9 10/16/9 9/15/9 20/26/9
f 10/16/2 19/25/2 18/24/2 11/17/2
f 15/21/10 22/28/10 21/27/10 16/22/10
f 16/22/5 21/27/5 20/26/5 9/15/5
usemtl Material.002
f 25/31/3 26/32/3 27/33/3 28/34/3 29/35/3 30/36/3 31/37/3 32/38/3
f 33/39/1 34/40/1 35/41/1 36/42/1 37/43/1 38/44/1 39/45/1 40/46/1
f 39/45/7 30/36/7 29/35/7 40/46/7
f 30/36/4 39/45/4 38/44/4 31/37/4
f 33/39/8 28/34/8 27/33/8 34/40/8
f 28/34/6 33/39/6 40/46/6 29/35/6
f 35/41/11 26/32/11 25/31/11 36/42/11
f 26/32/2 35/41/2 34/40/2 27/33/2
f 31/37/10 38/44/10 37/43/10 32/38/10
f 32/38/5 37/43/5 36/42/5 25/31/5
usemtl Material.003
f 41/47/3 42/48/3 43/49/3 44/50/3 45/51/3 46/52/3 47/53/3 48/54/3
f 49/55/1 50/56/1 51/57/1 52/58/1 53/59/1 54/60/1 55/61/1 56/62/1
f 55/61/7 46/52/7 45/51/7 56/62/7
f 46/52/4 55/61/4 54/60/4 47/53/4
f 49/55/8 44/50/8 43/49/8 50/56/8
f 44/50/6 49/55/6 56/62/6 45/51/6
f 51/57/9 42/48/9 41/47/9 52/58/9
f 42/48/2 51/57/2 50/56/2 43/49/2
f 47/53/10 54/60/10 53/59/10 48/54/10
f 48/54/5 53/59/5 52/58/5 41/47/5
usemtl Material.004
f 57/63/3 58/64/3 59/65/3 60/66/3 61/67/3 62/68/3 63/69/3 64/70/3
f 65/71/1 66/72/1 67/73/1 68/74/1 69/75/1 70/76/1 71/77/1 72/78/1
f 71/77/7 62/68/7 61/67/7 72/78/7
f 62/68/4 71/77/4 70/76/4 63/69/4
f 65/71/8 60/66/8 59/65/8 66/72/8
f 60/66/6 65/71/6 72/78/6 61/67/6
f 67/73/9 58/64/9 57/63/9 68/74/9
f 58/64/2 67/73/2 66/72/2 59/65/2
f 63/69/10 70/76/10 69/75/10 64/70/10
f 64/70/5 69/75/5 68/74/5 57/63/5
f 73/79/5 74/80/5 75/81/5 76/82/5
f 76/82/2 75/81/2 77/83/2 78/84/2
f 78/84/6 77/83/6 79/85/6 80/86/6
f 80/86/4 79/85/4 74/87/4 73/88/4
f 76/89/3 78/84/3 80/86/3 73/90/3
f 77/83/1 75/91/1 74/92/1 79/85/1
